<svg width="768" height="720" viewBox="0 0 768 720" fill="none" xmlns="http://www.w3.org/2000/svg">
<rect width="768" height="720" fill="#F9AC00"/>
<mask id="mask0_60_975" style="mask-type:alpha" maskUnits="userSpaceOnUse" x="0" y="0" width="768" height="720">
<rect width="768" height="720" fill="#C4C4C4"/>
</mask>
<g mask="url(#mask0_60_975)">
<path d="M-145.955 -239.945C-192.623 -239.945 -230.443 -277.817 -230.443 -324.492C-230.443 -371.165 -192.623 -409.037 -146.013 -409.037C-99.4024 -409.037 -61.5822 -371.165 -61.5822 -324.492C-61.5244 -277.759 -99.3446 -239.945 -145.955 -239.945Z" fill="#FF4F00"/>
<path d="M-423.976 -384.248C-391.005 -351.231 -391.005 -297.701 -423.976 -264.684C-456.948 -231.667 -510.406 -231.667 -543.378 -264.684C-576.349 -297.701 -576.349 -351.231 -543.378 -384.248C-510.406 -417.265 -456.948 -417.265 -423.976 -384.248Z" fill="#FF4F00"/>
<path d="M-230.443 -226.568C-230.443 -273.262 -268.244 -311.114 -314.873 -311.114C-361.503 -311.114 -399.303 -273.262 -399.303 -226.568C-399.303 -179.875 -361.503 -142.023 -314.873 -142.023C-268.244 -142.023 -230.443 -179.875 -230.443 -226.568Z" fill="#FF4F00"/>
<path d="M-483.676 -213.25C-437.066 -213.25 -399.246 -175.378 -399.246 -128.704C-399.246 -82.03 -437.066 -44.158 -483.676 -44.158C-530.286 -44.158 -568.106 -82.03 -568.106 -128.704C-568.106 -175.436 -530.286 -213.25 -483.676 -213.25Z" fill="#FF4F00"/>
<path d="M-230.443 -30.8389C-230.443 -77.5328 -268.244 -115.385 -314.873 -115.385C-361.503 -115.385 -399.303 -77.5328 -399.303 -30.8389C-399.303 15.8544 -361.503 53.7066 -314.873 53.7066C-268.244 53.7066 -230.443 15.8544 -230.443 -30.8389Z" fill="#FF4F00"/>
<path d="M-483.676 -17.5197C-437.066 -17.5197 -399.246 20.3523 -399.246 67.0264C-399.246 113.7 -437.066 151.572 -483.676 151.572C-530.286 151.572 -568.106 113.7 -568.106 67.0264C-568.106 20.2941 -530.286 -17.5197 -483.676 -17.5197Z" fill="#FF4F00"/>
<path d="M-230.443 164.89C-230.443 118.197 -268.244 80.3442 -314.873 80.3442C-361.503 80.3442 -399.303 118.197 -399.303 164.89C-399.303 211.584 -361.503 249.436 -314.873 249.436C-268.244 249.436 -230.443 211.584 -230.443 164.89Z" fill="#FF4F00"/>
<path d="M-399.246 262.756C-399.246 216.082 -437.066 178.21 -483.676 178.21C-530.286 178.21 -568.106 216.023 -568.106 262.756C-568.106 309.429 -530.286 347.301 -483.676 347.301C-437.066 347.301 -399.246 309.429 -399.246 262.756Z" fill="#FF4F00"/>
<path d="M-314.873 276.074C-268.244 276.074 -230.443 313.927 -230.443 360.62C-230.443 407.314 -268.244 445.166 -314.873 445.166C-361.503 445.166 -399.303 407.314 -399.303 360.62C-399.303 313.927 -361.503 276.074 -314.873 276.074Z" fill="#FF4F00"/>
<path d="M-399.246 458.484C-399.246 411.811 -437.066 373.939 -483.676 373.939C-530.286 373.939 -568.106 411.753 -568.106 458.484C-568.106 505.158 -530.286 543.031 -483.676 543.031C-437.066 543.031 -399.246 505.158 -399.246 458.484Z" fill="#FF4F00"/>
<path d="M-314.873 471.803C-268.244 471.803 -230.443 509.656 -230.443 556.349C-230.443 603.043 -268.244 640.895 -314.873 640.895C-361.503 640.895 -399.303 603.043 -399.303 556.349C-399.303 509.656 -361.503 471.803 -314.873 471.803Z" fill="#FF4F00"/>
<path d="M-399.246 654.214C-399.246 607.54 -437.066 569.668 -483.676 569.668C-530.286 569.668 -568.106 607.482 -568.106 654.214C-568.106 700.888 -530.286 738.76 -483.676 738.76C-437.066 738.76 -399.246 700.888 -399.246 654.214Z" fill="#FF4F00"/>
<path d="M-314.873 667.533C-268.244 667.533 -230.443 705.385 -230.443 752.078C-230.443 798.772 -268.244 836.624 -314.873 836.624C-361.503 836.624 -399.303 798.772 -399.303 752.078C-399.303 705.385 -361.503 667.533 -314.873 667.533Z" fill="#FF4F00"/>
<path d="M-399.246 849.943C-399.246 803.269 -437.066 765.397 -483.676 765.397C-530.286 765.397 -568.106 803.211 -568.106 849.943C-568.106 896.617 -530.286 934.489 -483.676 934.489C-437.066 934.489 -399.246 896.617 -399.246 849.943Z" fill="#FF4F00"/>
<path d="M-314.873 863.262C-268.244 863.262 -230.443 901.114 -230.443 947.807C-230.443 994.501 -268.244 1032.35 -314.873 1032.35C-361.503 1032.35 -399.303 994.501 -399.303 947.807C-399.303 901.114 -361.503 863.262 -314.873 863.262Z" fill="#FF4F00"/>
<path d="M-423.971 985.905C-390.999 1018.92 -390.999 1072.45 -423.971 1105.47C-456.942 1138.49 -510.4 1138.49 -543.372 1105.47C-576.344 1072.45 -576.344 1018.92 -543.372 985.905C-510.4 952.888 -456.942 952.888 -423.971 985.905Z" fill="#FF4F00"/>
<path d="M-146.013 961.127C-99.3446 961.127 -61.5244 998.999 -61.5244 1045.67C-61.5244 1092.35 -99.3446 1130.22 -145.955 1130.22C-192.565 1130.22 -230.385 1092.35 -230.385 1045.67C-230.385 998.999 -192.623 961.127 -146.013 961.127Z" fill="#FF4F00"/>
<path d="M-61.5244 849.943C-61.5244 803.269 -99.3446 765.397 -146.013 765.397C-192.623 765.397 -230.443 803.211 -230.385 849.943C-230.385 896.617 -192.565 934.489 -145.955 934.489C-99.3446 934.489 -61.5244 896.617 -61.5244 849.943Z" fill="#FF4F00"/>
<path d="M-230.443 654.214C-230.443 607.482 -192.623 569.668 -146.013 569.668C-99.4025 569.668 -61.5824 607.54 -61.5824 654.214C-61.5824 700.888 -99.4025 738.76 -146.013 738.76C-192.623 738.76 -230.443 700.888 -230.443 654.214Z" fill="#FF4F00"/>
<path d="M-61.5244 458.484C-61.5244 411.811 -99.3446 373.939 -146.013 373.939C-192.623 373.939 -230.443 411.753 -230.385 458.484C-230.385 505.158 -192.565 543.031 -145.955 543.031C-99.3446 543.031 -61.5244 505.158 -61.5244 458.484Z" fill="#FF4F00"/>
<path d="M-146.013 178.21C-99.3446 178.21 -61.5244 216.082 -61.5244 262.756C-61.5244 309.429 -99.3446 347.301 -145.955 347.301C-192.565 347.301 -230.385 309.429 -230.385 262.756C-230.443 216.023 -192.623 178.21 -146.013 178.21Z" fill="#FF4F00"/>
<path d="M107.278 947.807C107.278 901.114 69.4776 863.262 22.848 863.262C-23.7816 863.262 -61.5824 901.114 -61.5824 947.807C-61.5824 994.501 -23.7816 1032.35 22.848 1032.35C69.4776 1032.35 107.278 994.501 107.278 947.807Z" fill="#FF4F00"/>
<path d="M191.709 961.127C238.377 961.127 276.197 998.999 276.197 1045.67C276.197 1092.35 238.377 1130.22 191.766 1130.22C145.156 1130.22 107.336 1092.35 107.336 1045.67C107.336 998.999 145.099 961.127 191.709 961.127Z" fill="#FF4F00"/>
<path d="M276.197 849.943C276.197 803.269 238.377 765.397 191.708 765.397C145.098 765.397 107.278 803.211 107.336 849.943C107.336 896.617 145.156 934.489 191.766 934.489C238.376 934.489 276.197 896.617 276.197 849.943Z" fill="#FF4F00"/>
<path d="M22.848 667.533C69.4776 667.533 107.278 705.385 107.278 752.078C107.278 798.772 69.4776 836.624 22.848 836.624C-23.7816 836.624 -61.5824 798.772 -61.5824 752.078C-61.5824 705.385 -23.7816 667.533 22.848 667.533Z" fill="#FF4F00"/>
<path d="M107.278 556.349C107.278 509.656 69.4776 471.803 22.848 471.803C-23.7816 471.803 -61.5824 509.656 -61.5824 556.349C-61.5824 603.043 -23.7816 640.895 22.848 640.895C69.4776 640.895 107.278 603.043 107.278 556.349Z" fill="#FF4F00"/>
<path d="M107.278 654.214C107.278 607.482 145.098 569.668 191.708 569.668C238.318 569.668 276.139 607.54 276.139 654.214C276.139 700.888 238.318 738.76 191.708 738.76C145.098 738.76 107.278 700.888 107.278 654.214Z" fill="#FF4F00"/>
<path d="M107.278 360.62C107.278 313.927 69.4776 276.074 22.848 276.074C-23.7816 276.074 -61.5824 313.927 -61.5824 360.62C-61.5824 407.314 -23.7816 445.166 22.848 445.166C69.4776 445.166 107.278 407.314 107.278 360.62Z" fill="#FF4F00"/>
<path d="M191.708 178.21C238.377 178.21 276.197 216.082 276.197 262.756C276.197 309.429 238.376 347.301 191.766 347.301C145.156 347.301 107.336 309.429 107.336 262.756C107.278 216.023 145.098 178.21 191.708 178.21Z" fill="#FF4F00"/>
<path d="M107.278 164.89C107.278 118.197 69.4776 80.3442 22.848 80.3442C-23.7816 80.3442 -61.5824 118.197 -61.5824 164.89C-61.5824 211.584 -23.7816 249.436 22.848 249.436C69.4776 249.436 107.278 211.584 107.278 164.89Z" fill="#FF4F00"/>
<path d="M-61.5244 67.0264C-61.5244 113.758 -99.3446 151.572 -145.955 151.572C-192.565 151.572 -230.385 113.7 -230.385 67.0264C-230.385 20.3523 -192.565 -17.5197 -145.955 -17.5197C-99.3446 -17.5197 -61.5244 20.2941 -61.5244 67.0264Z" fill="#FF4F00"/>
<path d="M107.278 -30.8389C107.278 -77.5328 69.4776 -115.385 22.848 -115.385C-23.7816 -115.385 -61.5824 -77.5328 -61.5824 -30.8389C-61.5824 15.8544 -23.7816 53.7066 22.848 53.7066C69.4776 53.7066 107.278 15.8544 107.278 -30.8389Z" fill="#FF4F00"/>
<path d="M22.848 -311.114C69.4776 -311.114 107.278 -273.262 107.278 -226.568C107.278 -179.875 69.4776 -142.023 22.848 -142.023C-23.7816 -142.023 -61.5824 -179.875 -61.5824 -226.568C-61.5824 -273.262 -23.7816 -311.114 22.848 -311.114Z" fill="#FF4F00"/>
<path d="M-230.443 -128.704C-230.443 -82.03 -192.623 -44.158 -145.955 -44.158C-99.3446 -44.158 -61.5244 -82.03 -61.5822 -128.704C-61.5822 -175.378 -99.4024 -213.25 -146.013 -213.25C-192.623 -213.25 -230.443 -175.378 -230.443 -128.704Z" fill="#FF4F00"/>
<path d="M445 947.807C445 901.114 407.199 863.262 360.569 863.262C313.94 863.262 276.139 901.114 276.139 947.807C276.139 994.501 313.94 1032.35 360.569 1032.35C407.199 1032.35 445 994.501 445 947.807Z" fill="#FF4F00"/>
<path d="M529.429 961.127C576.097 961.127 613.918 998.999 613.918 1045.67C613.918 1092.35 576.098 1130.22 529.487 1130.22C482.877 1130.22 445.057 1092.35 445.057 1045.67C445.057 998.999 482.819 961.127 529.429 961.127Z" fill="#FF4F00"/>
<path d="M613.918 849.943C613.918 803.269 576.098 765.397 529.43 765.397C482.819 765.397 444.999 803.211 445.057 849.943C445.057 896.617 482.877 934.489 529.487 934.489C576.097 934.489 613.918 896.617 613.918 849.943Z" fill="#FF4F00"/>
<path d="M360.569 667.533C407.199 667.533 445 705.385 445 752.078C445 798.772 407.199 836.624 360.569 836.624C313.94 836.624 276.139 798.772 276.139 752.078C276.139 705.385 313.94 667.533 360.569 667.533Z" fill="#FF4F00"/>
<path d="M445 556.349C445 509.656 407.199 471.803 360.569 471.803C313.94 471.803 276.139 509.656 276.139 556.349C276.139 603.043 313.94 640.895 360.569 640.895C407.199 640.895 445 603.043 445 556.349Z" fill="#FF4F00"/>
<path d="M445 654.214C445 607.482 482.82 569.668 529.43 569.668C576.04 569.668 613.86 607.54 613.86 654.214C613.86 700.888 576.04 738.76 529.43 738.76C482.82 738.76 445 700.888 445 654.214Z" fill="#FF4F00"/>
<path d="M445 360.62C445 313.927 407.199 276.074 360.569 276.074C313.94 276.074 276.139 313.927 276.139 360.62C276.139 407.314 313.94 445.166 360.569 445.166C407.199 445.166 445 407.314 445 360.62Z" fill="#FF4F00"/>
<path d="M191.766 543.031C145.098 543.031 107.278 505.158 107.278 458.484C107.278 411.811 145.098 373.939 191.709 373.939C238.319 373.939 276.139 411.811 276.139 458.484C276.197 505.158 238.377 543.031 191.766 543.031Z" fill="#FF4F00"/>
<path d="M613.918 262.756C613.918 216.082 576.098 178.21 529.43 178.21C482.819 178.21 444.999 216.023 445.057 262.756C445.057 309.429 482.877 347.301 529.487 347.301C576.097 347.301 613.918 309.429 613.918 262.756Z" fill="#FF4F00"/>
<path d="M360.569 80.3442C407.199 80.3442 445 118.197 445 164.89C445 211.584 407.199 249.436 360.569 249.436C313.94 249.436 276.139 211.584 276.139 164.89C276.139 118.197 313.94 80.3442 360.569 80.3442Z" fill="#FF4F00"/>
<path d="M191.766 151.572C238.377 151.572 276.197 113.758 276.197 67.0264C276.197 20.2941 238.377 -17.5197 191.766 -17.5197C145.156 -17.5197 107.336 20.3523 107.336 67.0264C107.336 113.7 145.156 151.572 191.766 151.572Z" fill="#FF4F00"/>
<path d="M360.569 -115.385C407.199 -115.385 445 -77.5328 445 -30.8389C445 15.8544 407.199 53.7066 360.569 53.7066C313.94 53.7066 276.139 15.8544 276.139 -30.8389C276.139 -77.5328 313.94 -115.385 360.569 -115.385Z" fill="#FF4F00"/>
<path d="M445 -226.568C445 -273.262 407.199 -311.114 360.569 -311.114C313.94 -311.114 276.139 -273.262 276.139 -226.568C276.139 -179.875 313.94 -142.023 360.569 -142.023C407.199 -142.023 445 -179.875 445 -226.568Z" fill="#FF4F00"/>
<path d="M191.766 -44.158C145.098 -44.158 107.278 -82.03 107.278 -128.704C107.278 -175.378 145.098 -213.25 191.709 -213.25C238.319 -213.25 276.139 -175.378 276.139 -128.704C276.197 -82.03 238.377 -44.158 191.766 -44.158Z" fill="#FF4F00"/>
<path d="M107.278 -324.492C107.278 -277.817 145.098 -239.945 191.766 -239.945C238.377 -239.945 276.197 -277.759 276.139 -324.492C276.139 -371.165 238.319 -409.037 191.709 -409.037C145.098 -409.037 107.278 -371.165 107.278 -324.492Z" fill="#FF4F00"/>
<path d="M698.29 863.262C744.92 863.262 782.72 901.114 782.72 947.807C782.72 994.501 744.92 1032.35 698.29 1032.35C651.661 1032.35 613.86 994.501 613.86 947.807C613.86 901.114 651.661 863.262 698.29 863.262Z" fill="#FF4F00"/>
<path d="M951.639 1045.67C951.639 998.999 913.819 961.127 867.151 961.127C820.541 961.127 782.779 998.999 782.779 1045.67C782.779 1092.35 820.599 1130.22 867.209 1130.22C913.819 1130.22 951.639 1092.35 951.639 1045.67Z" fill="#FF4F00"/>
<path d="M867.151 765.397C913.819 765.397 951.639 803.269 951.639 849.943C951.639 896.617 913.819 934.489 867.209 934.489C820.599 934.489 782.779 896.617 782.779 849.943C782.721 803.211 820.541 765.397 867.151 765.397Z" fill="#FF4F00"/>
<path d="M782.72 752.078C782.72 705.385 744.92 667.533 698.29 667.533C651.661 667.533 613.86 705.385 613.86 752.078C613.86 798.772 651.661 836.624 698.29 836.624C744.92 836.624 782.72 798.772 782.72 752.078Z" fill="#FF4F00"/>
<path d="M698.29 471.803C744.92 471.803 782.72 509.656 782.72 556.349C782.72 603.043 744.92 640.895 698.29 640.895C651.661 640.895 613.86 603.043 613.86 556.349C613.86 509.656 651.661 471.803 698.29 471.803Z" fill="#FF4F00"/>
<path d="M867.151 569.668C820.541 569.668 782.721 607.482 782.721 654.214C782.721 700.888 820.541 738.76 867.151 738.76C913.761 738.76 951.581 700.888 951.581 654.214C951.581 607.54 913.761 569.668 867.151 569.668Z" fill="#FF4F00"/>
<path d="M698.29 276.074C744.92 276.074 782.72 313.927 782.72 360.62C782.72 407.314 744.92 445.166 698.29 445.166C651.661 445.166 613.86 407.314 613.86 360.62C613.86 313.927 651.661 276.074 698.29 276.074Z" fill="#FF4F00"/>
<path d="M445 458.484C445 505.158 482.82 543.031 529.488 543.031C576.098 543.031 613.918 505.158 613.86 458.484C613.86 411.811 576.04 373.939 529.43 373.939C482.82 373.939 445 411.811 445 458.484Z" fill="#FF4F00"/>
<path d="M698.29 80.3442C744.92 80.3442 782.72 118.197 782.72 164.89C782.72 211.584 744.92 249.436 698.29 249.436C651.661 249.436 613.86 211.584 613.86 164.89C613.86 118.197 651.661 80.3442 698.29 80.3442Z" fill="#FF4F00"/>
<path d="M529.487 151.572C576.098 151.572 613.918 113.758 613.918 67.0264C613.918 20.2941 576.098 -17.5197 529.487 -17.5197C482.877 -17.5197 445.057 20.3523 445.057 67.0264C445.057 113.7 482.877 151.572 529.487 151.572Z" fill="#FF4F00"/>
<path d="M698.29 -115.385C744.92 -115.385 782.72 -77.5328 782.72 -30.8389C782.72 15.8544 744.92 53.7066 698.29 53.7066C651.661 53.7066 613.86 15.8544 613.86 -30.8389C613.86 -77.5328 651.661 -115.385 698.29 -115.385Z" fill="#FF4F00"/>
<path d="M782.72 -226.568C782.72 -273.262 744.92 -311.114 698.29 -311.114C651.661 -311.114 613.86 -273.262 613.86 -226.568C613.86 -179.875 651.661 -142.023 698.29 -142.023C744.92 -142.023 782.72 -179.875 782.72 -226.568Z" fill="#FF4F00"/>
<path d="M529.488 -44.158C482.82 -44.158 445 -82.03 445 -128.704C445 -175.378 482.82 -213.25 529.43 -213.25C576.04 -213.25 613.86 -175.378 613.86 -128.704C613.918 -82.03 576.098 -44.158 529.488 -44.158Z" fill="#FF4F00"/>
<path d="M445 -324.492C445 -277.817 482.82 -239.945 529.488 -239.945C576.098 -239.945 613.918 -277.759 613.86 -324.492C613.86 -371.165 576.04 -409.037 529.43 -409.037C482.82 -409.037 445 -371.165 445 -324.492Z" fill="#FF4F00"/>
<path d="M1036.01 863.262C1082.64 863.262 1120.44 901.114 1120.44 947.807C1120.44 994.501 1082.64 1032.35 1036.01 1032.35C989.382 1032.35 951.581 994.501 951.581 947.807C951.581 901.114 989.382 863.262 1036.01 863.262Z" fill="#FF4F00"/>
<path d="M1264.57 1105.46C1297.54 1072.44 1297.54 1018.91 1264.57 985.892C1231.59 952.875 1178.14 952.875 1145.16 985.892C1112.19 1018.91 1112.19 1072.44 1145.16 1105.46C1178.14 1138.47 1231.59 1138.47 1264.57 1105.46Z" fill="#FF4F00"/>
<path d="M1036.01 667.533C1082.64 667.533 1120.44 705.385 1120.44 752.078C1120.44 798.772 1082.64 836.624 1036.01 836.624C989.382 836.624 951.581 798.772 951.581 752.078C951.581 705.385 989.382 667.533 1036.01 667.533Z" fill="#FF4F00"/>
<path d="M1120.44 849.943C1120.44 896.617 1158.26 934.489 1204.87 934.489C1251.48 934.489 1289.3 896.617 1289.3 849.943C1289.3 803.269 1251.48 765.397 1204.87 765.397C1158.26 765.397 1120.44 803.269 1120.44 849.943Z" fill="#FF4F00"/>
<path d="M1036.01 471.803C1082.64 471.803 1120.44 509.656 1120.44 556.349C1120.44 603.043 1082.64 640.895 1036.01 640.895C989.382 640.895 951.581 603.043 951.581 556.349C951.581 509.656 989.382 471.803 1036.01 471.803Z" fill="#FF4F00"/>
<path d="M1120.44 654.214C1120.44 700.888 1158.26 738.76 1204.87 738.76C1251.48 738.76 1289.3 700.888 1289.3 654.214C1289.3 607.54 1251.48 569.668 1204.87 569.668C1158.26 569.668 1120.44 607.54 1120.44 654.214Z" fill="#FF4F00"/>
<path d="M1036.01 276.074C1082.64 276.074 1120.44 313.927 1120.44 360.62C1120.44 407.314 1082.64 445.166 1036.01 445.166C989.382 445.166 951.581 407.314 951.581 360.62C951.581 313.927 989.382 276.074 1036.01 276.074Z" fill="#FF4F00"/>
<path d="M782.721 458.484C782.721 505.158 820.541 543.031 867.209 543.031C913.819 543.031 951.639 505.158 951.581 458.484C951.581 411.811 913.761 373.939 867.151 373.939C820.541 373.939 782.721 411.811 782.721 458.484Z" fill="#FF4F00"/>
<path d="M1204.87 543.031C1158.26 543.031 1120.44 505.158 1120.44 458.484C1120.44 411.811 1158.26 373.939 1204.87 373.939C1251.48 373.939 1289.3 411.811 1289.3 458.484C1289.3 505.158 1251.48 543.031 1204.87 543.031Z" fill="#FF4F00"/>
<path d="M1120.44 164.89C1120.44 118.197 1082.64 80.3442 1036.01 80.3442C989.382 80.3442 951.581 118.197 951.581 164.89C951.581 211.584 989.382 249.436 1036.01 249.436C1082.64 249.436 1120.44 211.584 1120.44 164.89Z" fill="#FF4F00"/>
<path d="M867.209 347.301C820.541 347.301 782.721 309.429 782.721 262.756C782.721 216.082 820.541 178.21 867.151 178.21C913.761 178.21 951.581 216.082 951.581 262.756C951.639 309.429 913.819 347.301 867.209 347.301Z" fill="#FF4F00"/>
<path d="M867.209 151.572C913.819 151.572 951.639 113.758 951.639 67.0264C951.639 20.2941 913.819 -17.5197 867.209 -17.5197C820.599 -17.5197 782.779 20.3523 782.779 67.0264C782.779 113.7 820.599 151.572 867.209 151.572Z" fill="#FF4F00"/>
<path d="M1204.87 347.301C1158.26 347.301 1120.44 309.429 1120.44 262.756C1120.44 216.082 1158.26 178.21 1204.87 178.21C1251.48 178.21 1289.3 216.082 1289.3 262.756C1289.3 309.429 1251.48 347.301 1204.87 347.301Z" fill="#FF4F00"/>
<path d="M1120.44 -30.8389C1120.44 -77.5328 1082.64 -115.385 1036.01 -115.385C989.382 -115.385 951.581 -77.5328 951.581 -30.8389C951.581 15.8544 989.382 53.7066 1036.01 53.7066C1082.64 53.7066 1120.44 15.8544 1120.44 -30.8389Z" fill="#FF4F00"/>
<path d="M1204.87 151.572C1158.26 151.572 1120.44 113.7 1120.44 67.0264C1120.44 20.3523 1158.26 -17.5197 1204.87 -17.5197C1251.48 -17.5197 1289.3 20.3523 1289.3 67.0264C1289.3 113.7 1251.48 151.572 1204.87 151.572Z" fill="#FF4F00"/>
<path d="M1120.44 -226.568C1120.44 -273.262 1082.64 -311.114 1036.01 -311.114C989.382 -311.114 951.581 -273.262 951.581 -226.568C951.581 -179.875 989.382 -142.023 1036.01 -142.023C1082.64 -142.023 1120.44 -179.875 1120.44 -226.568Z" fill="#FF4F00"/>
<path d="M867.209 -44.158C820.541 -44.158 782.721 -82.03 782.721 -128.704C782.721 -175.378 820.541 -213.25 867.151 -213.25C913.761 -213.25 951.581 -175.378 951.581 -128.704C951.639 -82.03 913.819 -44.158 867.209 -44.158Z" fill="#FF4F00"/>
<path d="M782.721 -324.492C782.721 -277.817 820.541 -239.945 867.209 -239.945C913.819 -239.945 951.639 -277.759 951.581 -324.492C951.581 -371.165 913.761 -409.037 867.151 -409.037C820.541 -409.037 782.721 -371.165 782.721 -324.492Z" fill="#FF4F00"/>
<path d="M1204.87 -44.158C1158.26 -44.158 1120.44 -82.03 1120.44 -128.704C1120.44 -175.378 1158.26 -213.25 1204.87 -213.25C1251.48 -213.25 1289.3 -175.378 1289.3 -128.704C1289.3 -82.03 1251.48 -44.158 1204.87 -44.158Z" fill="#FF4F00"/>
<path d="M1264.56 -264.696C1297.53 -297.713 1297.53 -351.244 1264.56 -384.261C1231.59 -417.277 1178.13 -417.277 1145.16 -384.261C1112.19 -351.244 1112.19 -297.713 1145.16 -264.696C1178.13 -231.679 1231.59 -231.679 1264.56 -264.696Z" fill="#FF4F00"/>
</g>
</svg>
